<?xml version="1.0" standalone="no"?>
<!DOCTYPE svg PUBLIC "-//W3C//DTD SVG 20010904//EN"
 "http://www.w3.org/TR/2001/REC-SVG-20010904/DTD/svg10.dtd">
<svg version="1.0" xmlns="http://www.w3.org/2000/svg"
 width="593.000000pt" height="105.000000pt" viewBox="0 0 593.000000 105.000000"
 preserveAspectRatio="xMidYMid meet">

<g transform="translate(0.000000,105.000000) scale(0.100000,-0.100000)"
fill="#000000" stroke="none">
<path d="M60 1035 c14 -7 31 -24 38 -37 6 -13 84 -226 171 -475 88 -248 164
-461 170 -472 7 -11 20 -25 31 -31 12 -7 826 -10 2494 -10 l2475 0 26 23 c21
17 56 106 170 432 184 523 192 541 222 565 l26 20 -2924 0 c-2493 -1 -2920 -3
-2899 -15z"/>
</g>
</svg>
